<?xml version="1.0" standalone="no"?>
<!DOCTYPE svg PUBLIC "-//W3C//DTD SVG 20010904//EN"
 "http://www.w3.org/TR/2001/REC-SVG-20010904/DTD/svg10.dtd">
<svg version="1.0" xmlns="http://www.w3.org/2000/svg"
 width="260.000000pt" height="260.000000pt" viewBox="0 0 260.000000 260.000000"
 preserveAspectRatio="xMidYMid meet">
<metadata>
Created by potrace 1.11, written by Peter Selinger 2001-2013
</metadata>
<g transform="translate(0.000000,260.000000) scale(0.100000,-0.100000)"
fill="#000000" stroke="none">
<path d="M924 1532 c-113 -40 -174 -124 -174 -239 1 -147 111 -248 270 -247
64 0 83 4 128 28 86 48 132 124 132 221 0 96 -46 173 -129 219 -67 36 -157 43
-227 18z m166 -101 c40 -21 80 -89 80 -136 0 -47 -40 -115 -80 -136 -70 -38
-166 -12 -206 54 -24 42 -24 122 0 163 40 67 136 93 206 55z"/>
<path d="M1452 1532 c-65 -24 -89 -45 -103 -93 -27 -89 15 -145 134 -180 112
-32 137 -45 137 -73 0 -13 -7 -30 -17 -37 -25 -22 -129 -16 -187 9 -27 12 -50
21 -50 20 -14 -30 -36 -80 -36 -83 0 -2 24 -13 54 -24 200 -75 386 12 346 161
-14 49 -52 75 -153 103 -45 13 -90 26 -99 30 -25 10 -30 35 -13 61 22 34 86
41 159 16 l58 -20 15 35 c19 46 12 59 -34 73 -72 21 -154 22 -211 2z"/>
<path d="M390 1495 l0 -45 85 0 85 0 0 -133 c0 -155 -8 -177 -67 -177 -20 0
-48 9 -65 22 l-31 21 -28 -34 -29 -34 30 -27 c80 -74 234 -56 281 32 17 30 19
59 19 227 l0 193 -140 0 -140 0 0 -45z"/>
<path d="M1820 1295 l0 -245 190 0 190 0 0 45 0 45 -135 0 -135 0 0 55 0 54
113 3 112 3 3 43 3 42 -115 0 -116 0 0 55 0 55 130 0 130 0 0 45 0 45 -185 0
-185 0 0 -245z"/>
</g>
</svg>
