<?xml version="1.0" encoding="UTF-8"?>
<svg width="1232px" height="531px" viewBox="0 0 1232 531" version="1.1" xmlns="http://www.w3.org/2000/svg" xmlns:xlink="http://www.w3.org/1999/xlink">
    <!-- Generator: Sketch 62 (91390) - https://sketch.com -->
    <title>asym-enc</title>
    <desc>Created with Sketch.</desc>
    <g id="Page-1" stroke="none" stroke-width="1" fill="none" fill-rule="evenodd">
        <g id="asymmetrical-encryption">
            <rect id="Rectangle" stroke="#000000" stroke-width="4" fill="#FAC863" x="334" y="152" width="230" height="104" rx="10"></rect>
            <text id="Encryption-Algorithm" font-family="Montserrat-Bold, Montserrat" font-size="35" font-weight="bold" fill="#000000">
                <tspan x="350.305" y="193">Encryption</tspan>
                <tspan x="357.7425" y="236">Algorithm</tspan>
            </text>
            <rect id="Rectangle" stroke="#000000" stroke-width="4" fill="#FFFFFF" x="4" y="152" width="230" height="231" rx="10"></rect>
            <rect id="Rectangle" stroke="#000000" stroke-width="4" fill="#FAC863" x="336" y="11" width="230" height="104" rx="10"></rect>
            <rect id="Rectangle" stroke="#000000" stroke-width="4" fill="#FFFFFF" x="995" y="152" width="230" height="231" rx="10"></rect>
            <text id="The-quick-brown-fox" font-family="Montserrat-Bold, Montserrat" font-size="20" font-weight="bold" fill="#000000">
                <tspan x="31.11" y="251">The quick brown </tspan>
                <tspan x="41.68" y="275">fox jumps over </tspan>
                <tspan x="55.21" y="299">the lazy dog</tspan>
            </text>
            <text id="150c26248eda24bb-f94" font-family="Monaco" font-size="18" font-weight="normal" fill="#000000">
                <tspan x="1024" y="240">150c26248eda24bb</tspan>
                <tspan x="1024" y="263">f94aed252ccb4f14</tspan>
                <tspan x="1024" y="286">33aebeddd7ad83fd</tspan>
                <tspan x="1024" y="309">8f1f581000470f62</tspan>
            </text>
            <path id="Line" d="M251,199 L251,209 L295,209 L295,199 L319,211 L295,223 L295,213 L251,213 L251,223 L247,223 L247,199 L251,199 Z" fill="#000000" fill-rule="nonzero"></path>
            <path id="Line" d="M652,343 L648,343 L648,333 L273,333 L273,343 L249,331 L273,319 L273,329 L648,329 L648,319 L652,319 L652,343 Z" fill="#000000" fill-rule="nonzero"></path>
            <path id="Line" d="M581,199 L581,209 L957,209 L957,199 L981,211 L957,223 L957,213 L581,213 L581,223 L577,223 L577,199 L581,199 Z" fill="#000000" fill-rule="nonzero"></path>
            <rect id="Rectangle" stroke="#000000" stroke-width="4" fill="#FAC863" x="665" y="279" width="230" height="104" rx="10"></rect>
            <text id="Decryption-Algorithm" font-family="Montserrat-Bold, Montserrat" font-size="35" font-weight="bold" fill="#000000">
                <tspan x="677.6425" y="322">Decryption</tspan>
                <tspan x="686.7425" y="365">Algorithm</tspan>
            </text>
            <path id="Line" d="M983,343 L979,343 L979,333 L934,333 L934,343 L910,331 L934,319 L934,329 L979,329 L979,319 L983,319 L983,343 Z" fill="#000000" fill-rule="nonzero"></path>
            <text id="Public-key" font-family="Montserrat-Bold, Montserrat" font-size="35" font-weight="bold" fill="#000000">
                <tspan x="393.215" y="54">Public</tspan>
                <tspan x="417.9425" y="97">key</tspan>
            </text>
            <rect id="Rectangle" stroke="#000000" stroke-width="4" fill="#FAC863" x="664" y="420" width="230" height="104" rx="10"></rect>
            <text id="Private-key" font-family="Montserrat-Bold, Montserrat" font-size="35" font-weight="bold" fill="#000000">
                <tspan x="713.4625" y="463">Private</tspan>
                <tspan x="745.9425" y="506">key</tspan>
            </text>
            <path id="Line-2" d="M463,128 L451,152 L439,128 L463,128 Z M453,113 L453,127 L449,127 L449,113 L453,113 Z" fill="#65737E" fill-rule="nonzero"></path>
            <path id="Line-2" d="M780,383 L792,407 L782,407 L782,417 L778,417 L778,407 L768,407 L780,383 Z" fill="#65737E" fill-rule="nonzero"></path>
        </g>
    </g>
</svg>