<?xml version="1.0" encoding="UTF-8"?>
<svg width="441px" height="451px" viewBox="0 0 441 451" version="1.1" xmlns="http://www.w3.org/2000/svg" xmlns:xlink="http://www.w3.org/1999/xlink">
    <!-- Generator: Sketch 62 (91390) - https://sketch.com -->
    <title>cat</title>
    <desc>Created with Sketch.</desc>
    <g id="Page-1" stroke="none" stroke-width="1" fill="none" fill-rule="evenodd">
        <g id="Poes" transform="translate(0.000000, 1.000000)">
            <g id="Cat">
                <g id="Body" transform="translate(74.411559, 12.209483)">
                    <path d="M71.6944086,1.64898882 C82.7281421,6.15006961 95.0315824,25.1111401 98.5903792,30.8978596 C116.833749,23.7682334 137.21724,21.9784203 158.554508,24.4371531 C167.605802,25.4801506 176.676335,27.8195876 185.488703,31.2760343 L211.169343,6.61192842 C211.169343,6.61192842 225.906899,-3.24226457 230.203057,11.5169671 C234.499215,26.2761987 243.954069,75.9248918 243.954069,75.9248918 L241.442744,74.0388203 C249.998916,85.4331944 256.580148,98.2581483 260.336788,111.964109 C273.004797,158.182863 290.293957,436.529321 290.293957,436.529321 L0.649355268,436.52932 C0.649355268,436.52932 -0.80671865,241.215569 29.0883191,121.950646 C33.418746,104.674601 39.2446254,89.9743676 46.3138124,77.6184128 L43.5578864,79.9509797 L54.7274797,10.083229 C54.7274797,10.083229 58.6295708,-3.6806569 71.6944086,1.64898882 Z" stroke="#000000" stroke-width="2" fill="#C28838"></path>
                    <g id="Fur" transform="translate(25.567107, 31.121123)" stroke="#8D5E1D" stroke-linecap="round" stroke-linejoin="round">
                        <path d="" id="Path-17"></path>
                        <path d="M56.0362068,40.9459655 L48.1565129,32.1034952" id="Path-18"></path>
                        <path d="M75.3469179,29.6384068 L66.7915988,18.9662445" id="Path-19"></path>
                        <path d="M93.9461161,20.2776278 L86.4112564,5.65882626" id="Path-20"></path>
                        <path d="M117.014115,16.1717491 L113.7811,0.0526625998" id="Path-21"></path>
                        <path d="M141.531665,22.6755859 C142.858094,8.47855014 139.887895,13.6362804 147.376682,5.80245395" id="Path-22"></path>
                        <path d="M174.540561,33.3586764 C176.793165,31.040338 179.04577,28.7219997 181.298374,26.4036613" id="Path-23"></path>
                        <path d="M186.477127,42.8318596 C188.946098,41.7562131 191.415069,40.6805665 193.884039,39.60492" id="Path-24"></path>
                        <path d="M150.191527,39.5081274 L154.156339,29.7726675" id="Path-25"></path>
                        <path d="M128.94756,43.713921 L128.532511,27.8805287" id="Path-26"></path>
                        <path d="M109.831891,37.7986456 L106.126094,29.5915717" id="Path-27"></path>
                        <path d="M91.5556822,51.5572422 L86.9339687,41.8233434" id="Path-28"></path>
                        <path d="M117.947196,59.0742786 L116.889288,48.069587" id="Path-29"></path>
                        <path d="M144.285657,53.5399288 L146.078483,45.9401503" id="Path-30"></path>
                        <path d="" id="Path-31"></path>
                        <polyline id="Path-32" points="116.453955 124.301548 117.752154 124.301548 118.033014 124.301548 118.594735 124.301548 119.005103 124.301548 119.134611 124.301548 119.264119 124.301548 119.393626 124.301548 119.523134 124.301548 119.78215 124.301548 120.041166 124.301548 120.170673 124.301548 120.300181 124.301548 120.429689 124.301548 120.559197 124.301548 120.947721 124.301548 121.077228 124.301548 121.206736 124.301548"></polyline>
                        <path d="M112.183316,135.370247 C115.175,135.239109 118.166683,135.107971 121.158366,134.976832" id="Path-33"></path>
                        <path d="M106.75647,144.250186 L129.813546,142.77488" id="Path-34"></path>
                        <path d="M9.24798889,191.091549 L0.155914406,190.566996" id="Path-35"></path>
                        <polyline id="Path-36" points="72.5664002 182.136674 71.1308916 182.136674 70.4771111 182.136674 69.5409098 182.136674 69.0837315 182.136674 68.6265533 182.136674 68.169375 182.136674 67.7121967 182.136674 67.0584162 182.136674 66.3188172 182.136674 65.8616389 182.136674 65.2967975 182.136674 65.0143768 182.136674 64.4495353 182.136674 64.1671146 182.136674 64.0360465 182.136674 63.9049783 182.136674 63.6225576 182.136674 63.4914894 182.136674 63.3604212 182.136674 63.229353 182.136674 63.0982849 182.136674"></polyline>
                        <path d="M82.5494262,203.468509 L70.0698635,204.818922" id="Path-37"></path>
                        <path d="M60.1149235,227.908635 L47.2842854,226.217888" id="Path-38"></path>
                        <path d="M25.7891047,225.026714 L13.602885,219.751519" id="Path-39"></path>
                        <path d="M22.6668735,244.503879 L10.2731293,248.975072" id="Path-40"></path>
                        <path d="M52.2679967,248.70655 L42.7249853,254.225288" id="Path-41"></path>
                        <path d="M79.0433525,256.506159 L69.5830389,264.185557" id="Path-42"></path>
                        <path d="M102.548245,264.034123 L97.7689379,268.332026" id="Path-43"></path>
                        <polyline id="Path-44" points="119.228231 261.604942 119.228231 262.903836 119.228231 263.184846 119.228231 263.640708 119.228231 263.921719 119.228231 264.20273 119.228231 264.48374 119.228231 264.613318 119.228231 264.894328 119.228231 265.023905 119.228231 265.434493 119.228231 265.56407 119.228231 265.693648 119.228231 265.952802 119.228231 266.082379 119.228231 266.211956 119.228231 266.341533 119.228231 266.471111 119.228231 266.600688 119.228231 266.730265 119.228231 266.859842 119.228231 267.118996 119.228231 267.248574 119.228231 267.378151 119.228231 267.507728 119.228231 267.637305 119.228231 267.766882 119.228231 268.026036 119.228231 268.155614 119.228231 268.414768 119.228231 268.544345 119.228231 268.673922 119.228231 268.803499 119.228231 268.933077 119.228231 269.062654 119.228231 269.192231 119.228231 269.473242 119.228231 269.602819 119.228231 269.732396 119.228231 269.861973 119.228231 269.99155 119.228231 270.250705 119.228231 270.380282 119.228231 270.509859 119.228231 270.769013 119.228231 271.028168 119.228231 271.157745 119.228231 271.287322 119.228231 271.416899 119.228231 271.546476 119.228231 271.676053 119.228231 271.805631 119.228231 272.064785 119.228231 272.194362 119.228231 272.323939 119.228231 272.453516 119.228231 272.583093 119.228231 272.712671 119.228231 272.842248"></polyline>
                        <path d="M135.249755,261.984306 L138.875974,269.370204" id="Path-45"></path>
                        <path d="M159.562901,256.176752 C161.812385,259.583746 164.061869,262.990741 166.311352,266.397736" id="Path-46"></path>
                        <path d="M185.667313,250.26616 C188.463434,253.111133 191.259555,255.956106 194.055676,258.801079" id="Path-47"></path>
                        <path d="" id="Path-48"></path>
                        <path d="M203.358396,244.030844 C207.591586,247.396208 211.824776,250.761571 216.057966,254.126935" id="Path-49"></path>
                        <path d="M229.921546,229.079513 L242.196705,237.266292" id="Path-50"></path>
                        <path d="M204.676879,194.985108 C208.010276,195.56118 211.343673,196.137252 214.677069,196.713324" id="Path-51"></path>
                        <path d="M175.809114,217.757904 C179.27878,218.103443 182.748446,218.448982 186.218111,218.794521" id="Path-52"></path>
                        <path d="M156.819832,184.06472 C159.402707,185.206456 161.985582,186.348192 164.568457,187.489928" id="Path-53"></path>
                        <path d="M143.806634,197.258173 C145.41534,198.874505 147.024046,200.490837 148.632752,202.107169" id="Path-54"></path>
                        <path d="M101.80322,84.7675681 L93.5996075,70.2760526" id="Path-55"></path>
                        <polyline id="Path-56" points="120.178365 80.5479187 120.178365 77.4046802 120.178365 76.8679574 120.178365 75.9991189 120.178365 74.3889505 120.178365 74.1398637 120.178365 73.8907768 120.178365 73.354054 120.178365 72.8173312 120.178365 72.2806084 120.178365 72.0315216 120.178365 71.7824348 120.178365 71.533348 120.178365 71.2842612 120.178365 71.0351743 120.178365 70.7860875 120.178365 70.5370007 120.178365 70.2879139 120.178365 70.038827 120.178365 69.7897402"></polyline>
                        <path d="M134.333153,81.8823124 C139.236155,78.5601663 144.139158,75.2380203 149.04216,71.9158742" id="Path-57"></path>
                        <path d="M133.799681,105.883607 C136.92642,104.058947 140.053158,102.234287 143.179896,100.409628" id="Path-58"></path>
                        <polyline id="Path-59" points="117.997057 109.501297 117.997057 106.355093 117.997057 105.112624 117.997057 104.243785 117.997057 103.001317 117.997057 100.353287 117.997057 99.4844479 117.997057 97.5421638 117.997057 97.005441 117.997057 95.6829086 117.997057 95.4338217 117.997057 95.1847349 117.997057 94.6865613 117.997057 94.4374745"></polyline>
                        <path d="M108.643516,106.319509 L100.179095,96.6051229" id="Path-60"></path>
                        <path d="M78.8016889,66.5456809 L65.5004555,54.2751895" id="Path-61"></path>
                        <path d="M160.040573,65.6620157 C162.754364,62.3645806 165.468156,59.0671455 168.181947,55.7697104" id="Path-62"></path>
                        <path d="M32.1614235,59.8974349 C28.5535726,58.0866133 24.9457217,56.2757916 21.3378708,54.4649699" id="Path-63"></path>
                        <path d="M50.1394276,56.4309766 L40.6288085,49.4624762" id="Path-64"></path>
                    </g>
                </g>
                <g id="Face">
                    <path d="M194.942627,290.138056 C194.942627,290.138056 221.447104,305.395082 241.963796,290.514979" id="Mouth" stroke="#000000" stroke-width="2" stroke-linecap="round"></path>
                    <g id="Eyes" transform="translate(92.185544, 105.478055)" stroke="#000000">
                        <ellipse id="Oval" stroke-width="2" fill="#FFFFFF" cx="48.8784588" cy="53.445293" rx="48.8784588" ry="48.9046216"></ellipse>
                        <ellipse id="Oval" stroke-width="2" fill="#FFFFFF" cx="206.622576" cy="48.9380141" rx="48.8784588" ry="48.9046216"></ellipse>
                        <path d="M205.511702,55.6682303 C209.806333,55.6682303 213.28782,52.18488 213.28782,47.8879496 C213.28782,43.5910192 209.806333,40.1076689 205.511702,40.1076689 C201.21707,40.1076689 197.735583,43.5910192 197.735583,47.8879496 C197.735583,52.18488 201.21707,55.6682303 205.511702,55.6682303 Z" id="Oval-2" fill="#000000"></path>
                        <path d="M47.7675847,64.5599797 C52.0622164,64.5599797 55.5437032,61.0766294 55.5437032,56.779699 C55.5437032,52.4827686 52.0622164,48.9994183 47.7675847,48.9994183 C43.4729531,48.9994183 39.9914663,52.4827686 39.9914663,56.779699 C39.9914663,61.0766294 43.4729531,64.5599797 47.7675847,64.5599797 Z" id="Oval-2" fill="#000000"></path>
                    </g>
                    <g id="Nose" transform="translate(182.183346, 194.490346)">
                        <path d="M8.77858598,9.02021365 C0.763918378,-1.40513715 59.1365411,-0.540298738 66.9819016,4.95735942 C74.8272621,10.4550176 64.5613144,22.2565108 38.0526513,35.4048599 C23.5677209,25.2545039 16.7932536,19.4455645 8.77858598,9.02021365 Z" id="Path-12" fill="#F0A08E"></path>
                        <path d="M0.0665613415,69.5250973 C0.0665613415,69.5250973 37.9686468,67.2338731 37.9686467,31.9584016" id="Path-2" stroke="#000000" stroke-width="2" stroke-linecap="round" stroke-linejoin="round"></path>
                        <path d="M74.3302882,71.099452 C74.3302882,71.099452 38.4012938,72.4973456 38.4012938,33.2653091" id="Path-3" stroke="#000000" stroke-width="2" stroke-linecap="round" stroke-linejoin="round"></path>
                    </g>
                    <g id="Whiskers" transform="translate(0.000000, 215.624923)" stroke-linecap="round">
                        <path d="M138.073062,15.3207995 C138.073062,15.3207995 93.6509613,-8.02707415 9.20486981,3.6468627" id="Path-4" stroke="#000000"></path>
                        <path d="M152.165782,37.6540278 C152.165782,37.6540278 122.307628,19.9859638 22.5204781,36.2809478" id="Path-5" stroke="#000000"></path>
                        <path d="M297.356066,14.9154928 C297.356066,14.9154928 343.588669,-4.80506172 429.068155,1.36942486" id="Path-6" stroke="#000000"></path>
                        <path d="M283.368064,36.8737434 C283.368064,36.8737434 319.765523,22.4646755 419.607791,35.5502928" id="Path-7" stroke="#000000"></path>
                        <path d="M317.993606,19.8177743 C317.993606,19.8177743 395.859056,2.56053126 440.689,20.7359181" id="Path-8" stroke="#000000"></path>
                        <path d="M115.826186,16.804167 C115.826186,16.804167 53.5387894,3.4511023 0.433433297,27.5323882" id="Path-9" stroke="#241808"></path>
                    </g>
                    <g id="Ears" transform="translate(117.752651, 0.000000)">
                        <path d="M18.5968288,68.3889953 L23.0787493,37.9834525 C23.0787493,37.9834525 25.5392597,33.260472 29.4661282,36.0015862 C33.3929968,38.7427004 43.4079924,48.5042862 43.4079924,48.5042862 L18.5968288,68.3889953 Z" id="Path-13" fill="#F0A08E"></path>
                        <path d="M159.193329,47.8426152 L170.497782,34.6201657 C170.497782,34.6201657 176.963335,30.2633781 177.428036,37.8965459 C177.892738,45.5297136 180.987798,63.8668479 180.987798,63.8668479 L159.193329,47.8426152 Z" id="Path-14" fill="#F0A08E"></path>
                        <path d="M0.612954269,93.9862822 C0.612954269,93.9862822 21.8098595,56.1278938 56.8453527,42.9535595" id="Path-15" stroke="#000000" stroke-width="2"></path>
                        <path d="M196.549145,84.3670308 C196.549145,84.3670308 181.228627,54.4038222 142.340881,43.6601441" id="Path-16" stroke="#000000" stroke-width="2"></path>
                        <path d="M20.2188361,12.6189415 C16.7590656,13.3290194 10.1570213,23.4596024 10.1570213,23.4596024 L13.3382823,0.337340709 L36.395107,17.8772478 C36.395107,17.8772478 24.9710583,11.6436028 20.2188361,12.6189415 Z" id="Path-107" stroke="#241808" fill="#000000" stroke-linejoin="round"></path>
                        <path d="M179.704573,14.9611061 C176.130179,14.2743507 167.182949,17.8958046 167.182949,17.8958046 L183.001145,4.62682472 L188.136403,24.3965187 C188.136403,24.3965187 183.551687,15.7002596 179.704573,14.9611061 Z" id="Path-108" stroke="#241808" fill="#000000" stroke-linejoin="round"></path>
                    </g>
                </g>
            </g>
            <g id="Sweater" transform="translate(73.000000, 300.000000)">
                <path d="M8.52651283e-14,149 L7.53547039,0.39309787 C7.53547039,0.39309787 121.564659,60.4918251 280.72524,0.39309787 C283.21822,-0.5482466 283.948206,18.3314234 283.948206,18.3314234 L291,148.738805 L8.52651283e-14,149 Z" stroke="#000000" stroke-width="2" fill="#1C1C1D" stroke-linecap="round" stroke-linejoin="round"></path>
                <path d="M6.44132444,21.0919089 C6.44132444,21.0919089 124.72422,78.4006497 282.747296,17.9877369" id="Collar" stroke="#000000" stroke-width="2"></path>
                <g id="Logo" transform="translate(117.000000, 73.000000)">
                    <circle id="Oval" fill="#000000" cx="30.5" cy="30.5" r="30.5"></circle>
                    <path d="M6,30.5 C13.9050309,43.1666667 22.0059914,43.1666667 30.3028815,30.5 C38.5997716,17.8333333 46.8321444,17.8333333 55,30.5" id="Path-5" stroke="#FFFFFF" stroke-width="5" stroke-linecap="round" stroke-linejoin="round"></path>
                </g>
                <g id="Fibers-dark" opacity="0.46020154" transform="translate(21.985960, 44.439457)" stroke="#000000" stroke-linecap="round" stroke-width="2">
                    <path d="M1.04622814,0.433729606 L0.83793643,6.40456112" id="Path-65" stroke-linejoin="round"></path>
                    <path d="M14.7711643,11.4040315 L14.9856552,16.7719492" id="Path-68" stroke-linejoin="round"></path>
                    <polyline id="Path-69" stroke-linejoin="round" points="7.18587438 68.7937337 7.18587438 67.8397405 7.18587438 67.7355331"></polyline>
                    <path d="M27.5141538,93.1745257 L27.2017162,87.4121088" id="Path-70" stroke-linejoin="round"></path>
                    <path d="M36.7806554,40.2917902 L37.2951855,34.5070432" id="Path-71" stroke-linejoin="round"></path>
                    <path d="M46.9894291,71.1756154 L46.7811374,68.1077021" id="Path-72" stroke-linejoin="round"></path>
                    <path d="M72.6403057,61.4967399 L71.3955147,56.2503974" id="Path-73" stroke-linejoin="round"></path>
                    <polyline id="Path-74" stroke-linejoin="round" points="68.6443283 25.4794635 68.6443283 24.4584799 68.6443283 24.3542726 68.6443283 24.1297306 68.6443283 24.0255233 68.6443283 23.8009813 68.6443283 23.696774 68.6443283 23.472232 68.6443283 23.24769 68.6443283 23.0392754 68.6443283 22.8147334 68.6443283 22.3656495 68.6443283 22.2614421 68.6443283 21.9326929 68.6443283 21.8284855 68.6443283 21.7242782 68.6443283 21.6200709 68.6443283 21.5158636 68.6443283 21.4116562 68.6443283 21.3074489 68.6443283 21.0990343 68.6443283 20.9948269 68.6443283 20.7864123 68.6443283 20.682205 68.6443283 20.5779977 68.6443283 20.4737903 68.6443283 20.369583 68.6443283 20.2653757 68.6443283 20.1611684 68.6443283 20.056961 68.6443283 19.9527537 68.6443283 19.8485464 68.6443283 19.7443391 68.6443283 19.6401317 68.6443283 19.7430985"></polyline>
                    <path d="M102.991384,23.6012506 L102.574801,20.2554512" id="Path-75" stroke-linejoin="round"></path>
                    <path d="M138.976257,21.338463 L139.182069,20.1921824" id="Path-76" stroke-linejoin="round"></path>
                    <path d="M171.768564,30.2035289 L171.664418,25.0737993" id="Path-77" stroke-linejoin="round"></path>
                    <path d="M189.91474,56.5592977 L189.706448,50.858909" id="Path-78" stroke-linejoin="round"></path>
                    <path d="M175.779419,87.6577403 L175.050398,82.9597268" id="Path-79" stroke-linejoin="round"></path>
                    <path d="M210.233101,87.3897786 L209.695014,81.0356131" id="Path-80" stroke-linejoin="round"></path>
                    <path d="M221.13742,46.1261597 L218.205218,42.4218375" id="Path-81" stroke-linejoin="round"></path>
                    <path d="M208.32004,25.4682985 L207.158318,18.6303132" id="Path-82" stroke-linejoin="round"></path>
                    <path d="M163.679903,67.7043222 L160.747701,64" id="Path-81" stroke-linejoin="round"></path>
                    <path d="M150.909423,47.8379853 L149.747701,41" id="Path-82" stroke-linejoin="round"></path>
                    <path d="M110.950676,47.8379853 L109.788953,41" id="Path-82" stroke-linejoin="round"></path>
                    <path d="M81.8198053,46.7043222 L78.8876035,43" id="Path-81" stroke-linejoin="round"></path>
                    <path d="M69.0493257,25.8379853 L67.8876035,19" id="Path-82" stroke-linejoin="round"></path>
                    <path d="M237.422608,20.2145126 L235.673206,13.1197307" id="Path-83" stroke-linejoin="round"></path>
                    <path d="M250.230069,46.7799366 L247.163965,41.0634206" id="Path-84" stroke-linejoin="round"></path>
                    <path d="M249.059668,80.7875004 L246.692829,75.5994644" id="Path-85" stroke-linejoin="round"></path>
                    <path d="M233.910165,90.0818012 C233.247682,87.9360401 232.585199,85.7902789 231.922715,83.6445178" id="Path-86" stroke-linejoin="round"></path>
                    <path d="" id="Path-87" stroke-linejoin="round"></path>
                    <path d="M82.336067,80.9121687 L86.7627722,91.8876268" id="Path-104"></path>
                    <path d="M155.776706,90.4503221 L159.908297,80.2397662" id="Path-105"></path>
                    <polyline id="Path-106" points="123.705316 91.7880116 123.705316 94.7408901 123.705316 95.036178 123.705316 95.3314658 123.705316 95.6267537"></polyline>
                </g>
                <g id="Fibers-light" opacity="0.25928442" transform="translate(19.672049, 42.217484)" stroke="#FFFDFD" stroke-linecap="round" stroke-width="2">
                    <path d="M43.5319241,19.5881519 L43.1066619,14.0254658" id="Path-88" stroke-linejoin="round"></path>
                    <path d="M21.8075943,39.3044256 L20.4375803,34.3148797" id="Path-89" stroke-linejoin="round"></path>
                    <path d="M24.8464216,66.3983297 L24.2054287,59.1410339" id="Path-90" stroke-linejoin="round"></path>
                    <path d="M6.18075642,90.8448715 L5.45173542,86.2671926" id="Path-91" stroke-linejoin="round"></path>
                    <path d="M65.3752778,94.7117075 L64.387132,89.6043081" id="Path-92" stroke-linejoin="round"></path>
                    <path d="M60.6663973,47.9970532 L59.7154464,42.0001698" id="Path-93" stroke-linejoin="round"></path>
                    <polyline id="Path-94" stroke-linejoin="round" points="85.7457115 43.0062667 85.7457115 41.7942363 85.7457115 41.4307512 85.7457115 40.7037811 85.7457115 40.340296 85.7457115 40.115754 85.7457115 39.8912121 85.7457115 39.7870048 85.7457115 39.4582555 85.7457115 39.2337135 85.7457115 39.0252988 85.7457115 38.8168842 85.7457115 38.7126769 85.7457115 38.6084696 85.7457115 38.5042622 85.7457115 38.4000549 85.7457115 38.2958476 85.7457115 38.1916403 85.7457115 38.0874329 85.7457115 37.9832256 85.7457115 38.0861924 85.7457115 38.1891591 85.7457115 38.2921259"></polyline>
                    <path d="M172.793051,61.490661 L171.806145,54.9764627" id="Path-95" stroke-linejoin="round"></path>
                    <polyline id="Path-96" stroke-linejoin="round" points="196.710643 80.6871386 196.710643 78.248191 196.710643 78.023649 196.710643 77.660164 196.710643 77.435622 196.710643 77.0721369 196.710643 76.9679296 196.710643 76.6044445 196.710643 76.2756952 196.710643 75.9122102 196.710643 75.8080028 196.710643 75.7037955 196.710643 75.4792535 196.710643 75.3750462 196.710643 75.0462969 196.710643 74.9420896 196.710643 74.8378823 196.710643 74.733675 196.710643 74.6294676 196.710643 74.5252603 196.710643 74.8875048"></polyline>
                    <path d="M220.119904,72.3728829 L219.18507,64.5523714" id="Path-97" stroke-linejoin="round"></path>
                    <path d="M237.837098,63.6405573 L237.472587,57.7168672" id="Path-98" stroke-linejoin="round"></path>
                    <path d="M204.547618,45.8570813 L204.219063,38.5427197" id="Path-99" stroke-linejoin="round"></path>
                    <path d="M122.934833,74.8205115 L122,67" id="Path-97" stroke-linejoin="round"></path>
                    <path d="M107.328555,48.3143616 L107,41" id="Path-99" stroke-linejoin="round"></path>
                    <path d="M147.934833,50.8205115 L147,43" id="Path-97" stroke-linejoin="round"></path>
                    <path d="M132.328555,24.3143616 L132,17" id="Path-99" stroke-linejoin="round"></path>
                    <path d="M249.577063,6.80166524 C249.368772,4.53763709 249.16048,2.27360893 248.952188,0.00958077508" id="Path-100" stroke-linejoin="round"></path>
                    <polyline id="Path-101" stroke-linejoin="round" points="230.080711 36.7339783 230.080711 35.7638577 230.080711 35.6596504 230.080711 35.5554431 230.080711 35.4512358 230.080711 35.3470284 230.080711 35.2428211 230.080711 35.1386138 230.080711 34.9301992 230.080711 34.8259918 230.080711 34.7217845 230.080711 34.6175772 230.080711 34.5133699 230.080711 34.4091625 230.080711 34.3049552 230.080711 34.2007479 230.080711 34.0965406 230.080711 33.9923332 230.080711 33.8881259 230.080711 33.7839186 230.080711 33.6797113 230.080711 33.5755039 230.080711 33.3670893 230.080711 33.262882 230.080711 33.1586747 230.080711 33.0544673 230.080711 32.95026 230.080711 32.8460527 230.080711 32.7418454 230.080711 32.637638 230.080711 32.5334307 230.080711 32.4292234 230.080711 32.3250161 230.080711 32.2208087 230.080711 32.1166014 230.080711 32.0123941 230.080711 31.9081868 230.080711 31.8039795 230.080711 31.6997721 230.080711 31.5955648 230.080711 31.4913575 230.080711 31.3871502 230.080711 31.2829428"></polyline>
                    <path d="M254.98025,99.2223959 L254.547548,91.2244839" id="Path-102" stroke-linejoin="round"></path>
                    <polyline id="Path-103" points="0.0625760428 39.7517311 0.0625760428 42.6085521 0.0625760428 42.90384 0.0625760428 43.5442232 0.0625760428 44.1347989 0.0625760428 44.4300868 0.0625760428 45.3657579 0.0625760428 45.6610458 0.0625760428 45.9563336 0.0625760428 46.8920048 0.0625760428 47.1872926 0.0625760428 47.4825805 0.0625760428 47.7778683 0.0625760428 48.0731562 0.0625760428 48.9590198 0.0625760428 49.2543076 0.0625760428 49.5495955 0.0625760428 50.1401712 0.0625760428 50.7307469 0.0625760428 51.0260347 0.0625760428 51.3213226 0.0625760428 51.6166104 0.0625760428 51.9118983 0.0625760428 52.2071861 0.0625760428 52.502474 0.0625760428 52.7977618"></polyline>
                </g>
            </g>
        </g>
    </g>
</svg>