<?xml version="1.0" encoding="UTF-8"?>
<svg width="1772px" height="618px" viewBox="0 0 1772 618" version="1.1" xmlns="http://www.w3.org/2000/svg" xmlns:xlink="http://www.w3.org/1999/xlink">
    <!-- Generator: Sketch 62 (91390) - https://sketch.com -->
    <title>jwe-decrypt</title>
    <desc>Created with Sketch.</desc>
    <g id="Page-1" stroke="none" stroke-width="1" fill="none" fill-rule="evenodd">
        <g id="JWE-decrypt" transform="translate(0.000000, -32.000000)">
            <path d="M243,259 L538,259 C543.522847,259 548,263.477153 548,269 L548,296 L548,296 L233,296 L233,269 C233,263.477153 237.477153,259 243,259 Z" id="Rectangle" stroke="#000000" stroke-width="4" fill="#F2D393"></path>
            <rect id="Rectangle" stroke="#000000" stroke-width="4" fill="#F2D393" x="233" y="292" width="354" height="156" rx="10"></rect>
            <rect id="Rectangle" stroke="#000000" stroke-width="4" fill="#F2D393" x="1035" y="476" width="440" height="161" rx="10"></rect>
            <path id="Line-13" d="M1211.51688,446.483264 L1215.51674,446.516877 L1215.49993,448.516806 L1215.201,484.017 L1225.20125,484.101684 L1213,508 L1201.2021,483.900011 L1211.201,483.984 L1211.50007,448.483194 L1211.51688,446.483264 Z" fill="#000000" fill-rule="nonzero"></path>
            <rect id="Rectangle" fill="#FAC863" x="1101" y="551" width="120" height="38" rx="10"></rect>
            <text id="decryptA236GCM(-)" font-family="Monaco" font-size="30" font-weight="normal" fill="#000000">
                <tspan x="1055" y="537">decryptA236GCM(</tspan>
                <tspan x="1055" y="575"></tspan>
                <tspan x="1055" y="613">)</tspan>
            </text>
            <text id="cipher,-cek,-iv,-at" font-family="Monaco" font-size="30" font-weight="normal" fill="#000000">
                <tspan x="1111" y="579">cipher, cek, iv, at</tspan>
            </text>
            <text id="Encrypted-with-RSA-O" font-family="Montserrat-Bold, Montserrat" font-size="20" font-weight="bold" fill="#000000">
                <tspan x="251.02" y="283">Encrypted with RSA-OAEP</tspan>
            </text>
            <path d="M1045,259 L1340,259 C1345.52285,259 1350,263.477153 1350,269 L1350,296 L1350,296 L1035,296 L1035,269 C1035,263.477153 1039.47715,259 1045,259 Z" id="Rectangle" stroke="#000000" stroke-width="4" fill="#F2D393"></path>
            <rect id="Rectangle" stroke="#000000" stroke-width="4" fill="#F2D393" x="1035" y="292" width="354" height="156" rx="10"></rect>
            <text id="Encrypted-with-A256G" font-family="Montserrat-Bold, Montserrat" font-size="20" font-weight="bold" fill="#000000">
                <tspan x="1057.93" y="283">Encrypted with A256GCM</tspan>
            </text>
            <rect id="Rectangle" stroke="#000000" stroke-width="4" fill="#FAC863" x="9" y="309" width="154" height="114" rx="10"></rect>
            <text id="BASE64(-Header-)" font-family="Montserrat-Bold, Montserrat" font-size="25" font-weight="bold" fill="#000000">
                <tspan x="25" y="346">BASE64(</tspan>
                <tspan x="25" y="376">  Header</tspan>
                <tspan x="25" y="406">)</tspan>
            </text>
            <rect id="Rectangle" stroke="#000000" stroke-width="4" fill="#FAC863" x="256" y="309" width="308" height="114" rx="10"></rect>
            <rect id="Rectangle" stroke="#000000" stroke-width="4" fill="#FFFFFF" x="173" y="309" width="50" height="114" rx="10"></rect>
            <text id="BASE64(-JWE-Encrypte" font-family="Montserrat-Bold, Montserrat" font-size="25" font-weight="bold" fill="#000000">
                <tspan x="274" y="347">BASE64(</tspan>
                <tspan x="274" y="377">  JWE Encrypted key</tspan>
                <tspan x="274" y="407">)</tspan>
            </text>
            <text id="." font-family="Montserrat-Bold, Montserrat" font-size="50" font-weight="bold" fill="#000000">
                <tspan x="191.45" y="371">.</tspan>
            </text>
            <rect id="Rectangle" stroke="#000000" stroke-width="4" fill="#FAC863" x="657" y="309" width="308" height="114" rx="10"></rect>
            <rect id="Rectangle" stroke="#000000" stroke-width="4" fill="#FFFFFF" x="597" y="309" width="50" height="114" rx="10"></rect>
            <text id="BASE64(-Initializati" font-family="Montserrat-Bold, Montserrat" font-size="25" font-weight="bold" fill="#000000">
                <tspan x="673" y="346">BASE64(</tspan>
                <tspan x="673" y="376">  Initialization Vector</tspan>
                <tspan x="673" y="406">)</tspan>
            </text>
            <text id="." font-family="Montserrat-Bold, Montserrat" font-size="50" font-weight="bold" fill="#000000">
                <tspan x="615.45" y="371">.</tspan>
            </text>
            <rect id="Rectangle" stroke="#000000" stroke-width="4" fill="#FAC863" x="1116" y="309" width="192" height="114" rx="10"></rect>
            <rect id="Rectangle" stroke="#000000" stroke-width="4" fill="#FFFFFF" x="975" y="309" width="50" height="114" rx="10"></rect>
            <text id="BASE64(-Cipher-text" font-family="Montserrat-Bold, Montserrat" font-size="25" font-weight="bold" fill="#000000">
                <tspan x="1132" y="346">BASE64(</tspan>
                <tspan x="1132" y="376">  Cipher text</tspan>
                <tspan x="1132" y="406">)</tspan>
            </text>
            <text id="." font-family="Montserrat-Bold, Montserrat" font-size="50" font-weight="bold" fill="#000000">
                <tspan x="993.45" y="371">.</tspan>
            </text>
            <rect id="Rectangle" stroke="#000000" stroke-width="4" fill="#FAC863" x="1459" y="309" width="308" height="114" rx="10"></rect>
            <rect id="Rectangle" stroke="#000000" stroke-width="4" fill="#FFFFFF" x="1399" y="309" width="50" height="114" rx="10"></rect>
            <text id="BASE64(-Authenticati" font-family="Montserrat-Bold, Montserrat" font-size="25" font-weight="bold" fill="#000000">
                <tspan x="1475" y="346">BASE64(</tspan>
                <tspan x="1475" y="376">  Authentication Tag</tspan>
                <tspan x="1475" y="406">)</tspan>
            </text>
            <text id="." font-family="Montserrat-Bold, Montserrat" font-size="50" font-weight="bold" fill="#000000">
                <tspan x="1417.45" y="371">.</tspan>
            </text>
            <g id="Group" transform="translate(9.000000, 0.000000)">
                <rect id="Rectangle" stroke="#000000" stroke-width="4" fill="#FFFFFF" x="0" y="0" width="256" height="90" rx="10"></rect>
                <rect id="Rectangle" stroke="#000000" stroke-width="4" fill="#FFFFFF" x="0" y="34" width="348" height="196" rx="10"></rect>
                <rect id="Rectangle" fill="#FAC863" x="139" y="122" width="163" height="33" rx="10"></rect>
                <text id="{-}" font-family="Monaco" font-size="25" font-weight="normal" fill="#000000">
                    <tspan x="20" y="86">{</tspan>
                    <tspan x="20" y="117"></tspan>
                    <tspan x="20" y="148"></tspan>
                    <tspan x="20" y="179">  </tspan>
                    <tspan x="20" y="210">}</tspan>
                </text>
                <text id="&quot;alg&quot;:-&quot;RSA-OAEP&quot;,-&quot;" font-family="Monaco" font-size="25" font-weight="normal" fill="#000000">
                    <tspan x="39" y="117">"alg": "RSA-OAEP",</tspan>
                    <tspan x="39" y="148">"enc": "A256GCM",</tspan>
                    <tspan x="39" y="179">"kid": "NDZDOTV…"</tspan>
                </text>
            </g>
        </g>
    </g>
</svg>