<?xml version="1.0" encoding="UTF-8"?>
<svg width="1559px" height="441px" viewBox="0 0 1559 441" version="1.1" xmlns="http://www.w3.org/2000/svg" xmlns:xlink="http://www.w3.org/1999/xlink">
    <!-- Generator: Sketch 62 (91390) - https://sketch.com -->
    <title>jwe-enc-key</title>
    <desc>Created with Sketch.</desc>
    <g id="Page-1" stroke="none" stroke-width="1" fill="none" fill-rule="evenodd">
        <g id="JWE-enc-key">
            <rect id="Rectangle-2" stroke="#000000" stroke-width="4" fill="#FAC863" x="3" y="7" width="154" height="114" rx="10"></rect>
            <rect id="Rectangle" stroke="#000000" stroke-width="4" fill="#FFFFFF" x="3" y="141" width="348" height="161" rx="10"></rect>
            <rect id="Rectangle" stroke="#000000" stroke-width="4" fill="#FFFFFF" x="446" y="273" width="425" height="161" rx="10"></rect>
            <text id="BASE64(-Header-)" font-family="Montserrat-Bold, Montserrat" font-size="25" font-weight="bold" fill="#000000">
                <tspan x="19" y="44">BASE64(</tspan>
                <tspan x="19" y="74">  Header</tspan>
                <tspan x="19" y="104">)</tspan>
            </text>
            <text id="{-}" font-family="Monaco" font-size="25" font-weight="normal" fill="#000000">
                <tspan x="23" y="180">{</tspan>
                <tspan x="23" y="211"></tspan>
                <tspan x="23" y="242"></tspan>
                <tspan x="23" y="273">}</tspan>
            </text>
            <rect id="Rectangle" fill="#FAC863" x="165" y="184" width="129" height="43" rx="5"></rect>
            <text id="&quot;alg&quot;:-&quot;RSA-OAEP&quot;,-&quot;" font-family="Monaco" font-size="25" font-weight="normal" fill="#000000">
                <tspan x="49" y="217">"alg": "RSA-OAEP",</tspan>
                <tspan x="49" y="248">"enc": "A256GCM"</tspan>
            </text>
            <rect id="Rectangle" stroke="#000000" stroke-width="4" fill="#FAC863" x="227" y="7" width="308" height="114" rx="10"></rect>
            <rect id="Rectangle" stroke="#000000" stroke-width="4" fill="#FFFFFF" x="167" y="7" width="50" height="114" rx="10"></rect>
            <text id="BASE64(-JWE-Encrypte" font-family="Montserrat-Bold, Montserrat" font-size="25" font-weight="bold" fill="#000000">
                <tspan x="245" y="45">BASE64(</tspan>
                <tspan x="245" y="75">  JWE Encrypted key</tspan>
                <tspan x="245" y="105">)</tspan>
            </text>
            <rect id="Rectangle" stroke="#000000" stroke-width="4" fill="#FAC863" x="3" y="322" width="348" height="114" rx="10"></rect>
            <rect id="Rectangle" fill="#FAC863" x="590" y="295" width="129" height="43" rx="5"></rect>
            <text id="Private-Key" font-family="Montserrat-Bold, Montserrat" font-size="35" font-weight="bold" fill="#000000">
                <tspan x="39" y="392">Private Key</tspan>
            </text>
            <text id="decryptRSAOAEP(-)" font-family="Monaco" font-size="30" font-weight="normal" fill="#000000">
                <tspan x="466" y="327">decryptRSAOAEP(</tspan>
                <tspan x="466" y="365"></tspan>
                <tspan x="466" y="403">)</tspan>
            </text>
            <text id="cipher,-privateKey" font-family="Monaco" font-size="30" font-weight="normal" fill="#000000">
                <tspan x="522" y="369">cipher, privateKey</tspan>
            </text>
            <text id="." font-family="Montserrat-Bold, Montserrat" font-size="50" font-weight="bold" fill="#000000">
                <tspan x="185.45" y="69">.</tspan>
            </text>
            <rect id="Rectangle" stroke="#000000" stroke-width="4" fill="#FAC863" x="605" y="7" width="308" height="114" rx="10"></rect>
            <rect id="Rectangle" stroke="#000000" stroke-width="4" fill="#FFFFFF" x="545" y="7" width="50" height="114" rx="10"></rect>
            <text id="BASE64(-Initializati" font-family="Montserrat-Bold, Montserrat" font-size="25" font-weight="bold" fill="#000000">
                <tspan x="621" y="44">BASE64(</tspan>
                <tspan x="621" y="74">  Initialization Vector</tspan>
                <tspan x="621" y="104">)</tspan>
            </text>
            <text id="." font-family="Montserrat-Bold, Montserrat" font-size="50" font-weight="bold" fill="#000000">
                <tspan x="563.45" y="69">.</tspan>
            </text>
            <rect id="Rectangle" stroke="#000000" stroke-width="4" fill="#FAC863" x="983" y="7" width="192" height="114" rx="10"></rect>
            <rect id="Rectangle" stroke="#000000" stroke-width="4" fill="#FFFFFF" x="923" y="7" width="50" height="114" rx="10"></rect>
            <text id="BASE64(-Cipher-text" font-family="Montserrat-Bold, Montserrat" font-size="25" font-weight="bold" fill="#000000">
                <tspan x="999" y="44">BASE64(</tspan>
                <tspan x="999" y="74">  Cipher text</tspan>
                <tspan x="999" y="104">)</tspan>
            </text>
            <text id="." font-family="Montserrat-Bold, Montserrat" font-size="50" font-weight="bold" fill="#000000">
                <tspan x="941.45" y="69">.</tspan>
            </text>
            <rect id="Rectangle" stroke="#000000" stroke-width="4" fill="#FAC863" x="1245" y="7" width="308" height="114" rx="10"></rect>
            <rect id="Rectangle" stroke="#000000" stroke-width="4" fill="#FFFFFF" x="1185" y="7" width="50" height="114" rx="10"></rect>
            <text id="BASE64(-Authenticati" font-family="Montserrat-Bold, Montserrat" font-size="25" font-weight="bold" fill="#000000">
                <tspan x="1261" y="44">BASE64(</tspan>
                <tspan x="1261" y="74">  Authentication Tag</tspan>
                <tspan x="1261" y="104">)</tspan>
            </text>
            <text id="." font-family="Montserrat-Bold, Montserrat" font-size="50" font-weight="bold" fill="#000000">
                <tspan x="1203.45" y="69">.</tspan>
            </text>
            <path id="Line-5" d="M390.018842,221 L390.018,300 L422,300 L422,290 L446,302 L422,314 L422,304 L386.018842,304 L386.018,225 L349,225 L349,221 L390.018842,221 Z" fill="#000000" fill-rule="nonzero"></path>
        </g>
        <g id="JWE-header" transform="translate(0.000000, -322.000000)" fill="#000000" fill-rule="nonzero">
            <path id="Line-10" d="M78.4808625,441.481044 L78.4999093,443.480953 L78.771,471.981 L88.7708948,471.886808 L77,496 L64.7719831,472.115369 L74.771,472.02 L74.5000907,443.519047 L74.4810439,441.519137 L78.4808625,441.481044 Z"></path>
        </g>
    </g>
</svg>